<svg width="25" height="25" viewBox="0 0 25 25" fill="none" xmlns="http://www.w3.org/2000/svg">
<g clip-path="url(#clip0_2_40)">
<path d="M21.6898 9.49412L21.5709 9.45174L21.1065 8.34307L21.1568 8.22915C22.5638 5.0381 22.4668 4.94292 22.2335 4.71157L20.3567 2.88067C20.2799 2.80455 20.1452 2.75101 20.029 2.75101C19.9234 2.75101 19.6036 2.75101 16.8317 4.00644L16.7206 4.05634L15.577 3.59581L15.5311 3.48196C14.2276 0.254333 14.094 0.254333 13.7697 0.254333H11.1192C10.796 0.254333 10.6489 0.254333 9.44015 3.48757L9.39465 3.60527L8.25698 4.06905L8.14821 4.02382C6.27202 3.23283 5.17654 2.83173 4.89098 2.83173C4.7751 2.83173 4.63989 2.88372 4.56282 2.95964L2.68427 4.79581C2.44596 5.03087 2.34712 5.1293 3.82782 8.25376L3.88224 8.36964L3.41705 9.47709L3.3032 9.5211C0 10.7976 0 10.9221 0 11.2546V13.8518C0 14.1852 0 14.3237 3.30976 15.5098L3.42807 15.5516L3.89333 16.6558L3.84337 16.7686C2.43636 19.9612 2.5256 20.0476 2.76513 20.2858L4.63908 22.1192C4.71764 22.1947 4.85359 22.2487 4.96954 22.2487C5.07446 22.2487 5.39356 22.2487 8.16727 20.9938L8.27835 20.9418L9.4227 21.4047L9.46719 21.5191C10.7715 24.7457 10.9055 24.7457 11.2301 24.7457H13.8813C14.2142 24.7457 14.3523 24.7457 15.562 21.5103L15.607 21.3925L16.7465 20.9318L16.855 20.9761C18.7296 21.7693 19.8245 22.1696 20.1083 22.1696C20.2231 22.1696 20.3596 22.1192 20.4379 22.0416L22.3195 20.2014C22.5562 19.9651 22.6548 19.8685 21.1715 16.7471L21.1163 16.6298L21.5807 15.5272L21.6916 15.4837C25.0001 14.2005 25.0001 14.0754 25.0001 13.7425V11.1468C25 10.8135 25 10.6759 21.6898 9.49412ZM12.5 16.7123C10.1312 16.7123 8.20418 14.8221 8.20418 12.5005C8.20418 10.1788 10.1313 8.29108 12.5 8.29108C14.8677 8.29108 16.7944 10.1792 16.7944 12.5005C16.7945 14.8217 14.8678 16.7123 12.5 16.7123Z" fill="white"/>
</g>
<defs>
<clipPath id="clip0_2_40">
<rect width="25" height="25" fill="white"/>
</clipPath>
</defs>
</svg>
