<svg width="130" height="25" viewBox="0 0 130 25" fill="none" xmlns="http://www.w3.org/2000/svg">
<path d="M129.487 5.10211L126.856 7.74764C125.202 6.68943 124.162 6.42487 123.849 6.42487C120.692 6.12253 120.278 7.81063 120.466 8.69248C120.466 10.5066 123.473 10.8341 124.977 10.7711C129.938 10.6199 130.301 15.3693 129.863 17.7629C129.111 21.6934 123.786 22.4241 121.218 22.2981C118.061 22.2981 116.144 20.4084 115.58 19.4636L118.399 16.6291C120.053 18.5943 122.721 18.4558 123.849 18.1408C125.352 17.8385 125.728 16.7551 125.728 16.2511C126.029 14.5882 123.348 14.2985 121.97 14.3615C118.662 13.908 116.833 11.653 116.332 10.5821V6.80281C117.534 4.23286 119.84 2.96048 120.842 2.64554H124.977C127.833 3.09906 129.174 4.47222 129.487 5.10211Z" fill="white"/>
<path fill-rule="evenodd" clip-rule="evenodd" d="M104.439 2.71007C104.597 2.66496 104.763 2.64554 104.927 2.64554H108.051C108.184 2.64554 108.315 2.65695 108.443 2.68982C110.071 3.10706 113.123 4.94678 113.701 9.44834V15.8732C113.518 17.3395 112.24 20.5836 108.596 22.1567C108.37 22.2545 108.124 22.2981 107.877 22.2981H104.961C104.774 22.2981 104.588 22.2748 104.413 22.2091C103.035 21.6923 100.508 19.9131 99.4794 16.1115C99.4369 15.9545 99.4175 15.791 99.4175 15.6283V9.44834C99.4175 7.65697 100.43 3.85443 104.439 2.71007ZM105.024 6.66748C105.28 6.48981 105.594 6.42487 105.906 6.42487H107.172C107.389 6.42487 107.606 6.455 107.798 6.55285C108.38 6.84809 109.22 7.52756 109.522 8.6891C109.555 8.81588 109.566 8.94741 109.566 9.07841V15.7014C109.566 15.94 109.527 16.1782 109.419 16.391C109.17 16.8797 108.691 17.598 107.967 18.1833C107.674 18.4201 107.299 18.5187 106.922 18.5187H105.758C105.542 18.5187 105.324 18.4886 105.132 18.3908C104.551 18.0955 103.71 17.416 103.408 16.2545C103.375 16.1277 103.364 15.9962 103.364 15.8652V9.20431C103.364 8.99044 103.395 8.77667 103.482 8.58142C103.728 8.03262 104.237 7.21301 105.024 6.66748Z" fill="white"/>
<path d="M96.0347 2.64554H91.5242V22.2981H96.0347V2.64554Z" fill="white"/>
<path d="M79.8723 2.64554H75.3618V22.2981H88.1414V18.1408H79.8723V2.64554Z" fill="white"/>
<path d="M59.1994 2.64554H71.979V6.80281H63.334V10.2042H70.8514V14.3615H63.334V18.1408H71.979V22.2981H59.1994V2.64554Z" fill="white"/>
<path d="M46.044 2.64554H41.5336V22.2981H46.044V14.2844H51.6821V22.2981H56.1925V2.64554H51.6821V10.4684H46.044V2.64554Z" fill="white"/>
<path d="M34.0162 22.2981V2.64554H31.0092L27.2505 7.18074H29.5058V17.3849H20.109L17.1021 22.2981H34.0162Z" fill="white"/>
<path d="M0 22.2981H8.08119L6.20185 17.5739H4.3225V7.18074H19.9211L22.928 2.64554H0V22.2981Z" fill="white"/>
<path d="M13.4811 25H11.1926C10.7881 25 10.4217 24.7532 10.2686 24.3788C8.74841 20.6624 8.9363 20.643 7.86449 17.3557C7.76576 17.0529 7.81214 16.7165 8.00828 16.4656C8.87177 15.3608 9.92436 14.4289 10.6239 14.1319C10.9027 14.0136 11.1793 14.1879 11.3361 14.4471L12.919 17.0634C13.2945 17.6841 14.1854 17.7109 14.5975 17.1139L24.6852 2.50101C24.7657 2.38433 24.8718 2.2849 24.9936 2.21232C27.1585 0.922398 28.6227 0.337152 29.7656 0.11491C30.5756 -0.0425839 30.9356 0.906041 30.3678 1.50469C22.331 9.9771 18.7027 15.964 14.3744 24.4509C14.2032 24.7864 13.8578 25 13.4811 25Z" fill="#F40000"/>
</svg>
